# xmcd
#
# Track frame offsets:
#	150
#	17370
#	34517
#	52922
#
# Disc length: 1024 seconds
#
# Revision: 0
# Processed by: cddbd v1.5.2PL0 Copyright (c) Steve Scherf et al.
# Submitted via: EasyCDDAExtractor 10.0.3.1
#
DISCID=1e03fe04
DTITLE=FEE ROMERO - SINGLE
DYEAR=1900
DGENRE=
TTITLE0=Mad Gigolo - RADIO EDIT
TTITLE1=Mad Gigolo - BIG SMITH REMIX
TTITLE2=Mad Gigolo - ONCE UPON A TIME GROOVE MIX
TTITLE3=Mad Gigolo - BLACKNIGHT MIX
EXTD=
EXTT0=
EXTT1=
EXTT2=
EXTT3=
PLAYORDER=
